<svg width="69" height="88" viewBox="0 0 69 88" fill="none" xmlns="http://www.w3.org/2000/svg">
<rect x="6" y="10" width="57" height="69" fill="white"/>
<path d="M68.9 25C68.9 18.1 66.5 12.2 61.6 7.3C56.7 2.4 50.8 0 43.9 0H6.29999C2.79999 0 0 2.8 0 6.3V81.4C0 84.9 2.79999 87.7 6.29999 87.7H43.9C50.8 87.7 56.7 85.3 61.6 80.4C66.5 75.5 68.9 69.6 68.9 62.7C68.9 55.8 66.5 49.9 61.6 45C61.2 44.6 60.8 44.3 60.5 43.9C60.9 43.6 61.3 43.2 61.6 42.8C66.5 37.9 68.9 32 68.9 25.1V25ZM52.7 71.4C50.3 73.8 47.3 75.1 43.8 75.1H12.5V50.1H43.8C47.3 50.1 50.2 51.3 52.7 53.8C55.1 56.2 56.4 59.2 56.4 62.7C56.4 66.2 55.2 69.1 52.7 71.6V71.4ZM52.7 33.8C50.3 36.2 47.3 37.5 43.8 37.5H12.5V12.5H43.8C47.3 12.5 50.2 13.7 52.7 16.2C55.1 18.6 56.4 21.6 56.4 25.1C56.4 28.6 55.2 31.5 52.7 34V33.8Z" fill="black"/>
<path d="M0.000366211 62.7002C0.000366211 69.6002 2.40041 75.5002 7.30042 80.4002C12.2004 85.3002 18.1004 87.7002 25.0004 87.7002H62.6004C66.1004 87.7002 68.9004 84.9002 68.9004 81.4002V6.3002C68.9004 2.8002 66.1004 0.000198364 62.6004 0.000198364H25.0004C18.1004 0.000198364 12.2004 2.4002 7.30042 7.3002C2.40041 12.2002 0.000366211 18.1002 0.000366211 25.0002C0.000366211 31.9002 2.40041 37.8002 7.30042 42.7002C7.70042 43.1002 8.10039 43.4002 8.40039 43.8002C8.00039 44.1002 7.60042 44.5002 7.30042 44.9002C2.40041 49.8002 0.000366211 55.7002 0.000366211 62.6002V62.7002ZM16.2004 16.3002C18.6004 13.9002 21.6004 12.6002 25.1004 12.6002H56.4004V37.6002H25.1004C21.6004 37.6002 18.7004 36.4002 16.2004 33.9002C13.8004 31.5002 12.5004 28.5002 12.5004 25.0002C12.5004 21.5002 13.7004 18.6002 16.2004 16.1002V16.3002ZM16.2004 53.9002C18.6004 51.5002 21.6004 50.2002 25.1004 50.2002H56.4004V75.2002H25.1004C21.6004 75.2002 18.7004 74.0002 16.2004 71.5002C13.8004 69.1002 12.5004 66.1002 12.5004 62.6002C12.5004 59.1002 13.7004 56.2002 16.2004 53.7002V53.9002Z" fill="black"/>
</svg>
