<svg width="321" height="88" viewBox="0 0 321 88" fill="none" xmlns="http://www.w3.org/2000/svg">
<path d="M224.3 0V67.5L180.5 0H174.2L168 6.3V37.6V81.4V87.7H174.2H180.5V18L223.5 87.7H224.3H230.6H236.9V81.4V37.6V6.3L230.6 0H224.3Z" fill="white"/>
<path d="M140.3 0H96.5H90.2L84 6.3V37.6V81.4V87.7H90.2H96.5V18H140.3V87.7H146.6H152.9V81.4V37.6V6.3L146.6 0H140.3Z" fill="white"/>
<path d="M320.9 25C320.9 18.1 318.5 12.2 313.6 7.3C308.7 2.4 302.8 0 295.9 0H258.3C254.8 0 252 2.8 252 6.3V81.4C252 84.9 254.8 87.7 258.3 87.7H295.9C302.8 87.7 308.7 85.3 313.6 80.4C318.5 75.5 320.9 69.6 320.9 62.7C320.9 55.8 318.5 49.9 313.6 45C313.2 44.6 312.8 44.3 312.5 43.9C312.9 43.6 313.3 43.2 313.6 42.8C318.5 37.9 320.9 32 320.9 25.1V25ZM304.7 71.4C302.3 73.8 299.3 75.1 295.8 75.1H264.5V50.1H295.8C299.3 50.1 302.2 51.3 304.7 53.8C307.1 56.2 308.4 59.2 308.4 62.7C308.4 66.2 307.2 69.1 304.7 71.6V71.4ZM304.7 33.8C302.3 36.2 299.3 37.5 295.8 37.5H264.5V12.5H295.8C299.3 12.5 302.2 13.7 304.7 16.2C307.1 18.6 308.4 21.6 308.4 25.1C308.4 28.6 307.2 31.5 304.7 34V33.8Z" fill="white"/>
<path d="M252 62.7002C252 69.6002 254.4 75.5002 259.3 80.4002C264.2 85.3002 270.1 87.7002 277 87.7002H314.6C318.1 87.7002 320.9 84.9002 320.9 81.4002V6.3002C320.9 2.8002 318.1 0.000198364 314.6 0.000198364H277C270.1 0.000198364 264.2 2.4002 259.3 7.3002C254.4 12.2002 252 18.1002 252 25.0002C252 31.9002 254.4 37.8002 259.3 42.7002C259.7 43.1002 260.1 43.4002 260.4 43.8002C260 44.1002 259.6 44.5002 259.3 44.9002C254.4 49.8002 252 55.7002 252 62.6002V62.7002ZM268.2 16.3002C270.6 13.9002 273.6 12.6002 277.1 12.6002H308.4V37.6002H277.1C273.6 37.6002 270.7 36.4002 268.2 33.9002C265.8 31.5002 264.5 28.5002 264.5 25.0002C264.5 21.5002 265.7 18.6002 268.2 16.1002V16.3002ZM268.2 53.9002C270.6 51.5002 273.6 50.2002 277.1 50.2002H308.4V75.2002H277.1C273.6 75.2002 270.7 74.0002 268.2 71.5002C265.8 69.1002 264.5 66.1002 264.5 62.6002C264.5 59.1002 265.7 56.2002 268.2 53.7002V53.9002Z" fill="white"/>
<path d="M68.9 25C68.9 18.1 66.5 12.2 61.6 7.3C56.7 2.4 50.8 0 43.9 0H6.29999C2.79999 0 0 2.8 0 6.3V81.4C0 84.9 2.79999 87.7 6.29999 87.7H43.9C50.8 87.7 56.7 85.3 61.6 80.4C66.5 75.5 68.9 69.6 68.9 62.7C68.9 55.8 66.5 49.9 61.6 45C61.2 44.6 60.8 44.3 60.5 43.9C60.9 43.6 61.3 43.2 61.6 42.8C66.5 37.9 68.9 32 68.9 25.1V25ZM52.7 71.4C50.3 73.8 47.3 75.1 43.8 75.1H12.5V50.1H43.8C47.3 50.1 50.2 51.3 52.7 53.8C55.1 56.2 56.4 59.2 56.4 62.7C56.4 66.2 55.2 69.1 52.7 71.6V71.4ZM52.7 33.8C50.3 36.2 47.3 37.5 43.8 37.5H12.5V12.5H43.8C47.3 12.5 50.2 13.7 52.7 16.2C55.1 18.6 56.4 21.6 56.4 25.1C56.4 28.6 55.2 31.5 52.7 34V33.8Z" fill="white"/>
<path d="M0.000366211 62.7002C0.000366211 69.6002 2.40041 75.5002 7.30042 80.4002C12.2004 85.3002 18.1004 87.7002 25.0004 87.7002H62.6004C66.1004 87.7002 68.9004 84.9002 68.9004 81.4002V6.3002C68.9004 2.8002 66.1004 0.000198364 62.6004 0.000198364H25.0004C18.1004 0.000198364 12.2004 2.4002 7.30042 7.3002C2.40041 12.2002 0.000366211 18.1002 0.000366211 25.0002C0.000366211 31.9002 2.40041 37.8002 7.30042 42.7002C7.70042 43.1002 8.10039 43.4002 8.40039 43.8002C8.00039 44.1002 7.60041 44.5002 7.30042 44.9002C2.40041 49.8002 0.000366211 55.7002 0.000366211 62.6002V62.7002ZM16.2004 16.3002C18.6004 13.9002 21.6004 12.6002 25.1004 12.6002H56.4004V37.6002H25.1004C21.6004 37.6002 18.7004 36.4002 16.2004 33.9002C13.8004 31.5002 12.5004 28.5002 12.5004 25.0002C12.5004 21.5002 13.7004 18.6002 16.2004 16.1002V16.3002ZM16.2004 53.9002C18.6004 51.5002 21.6004 50.2002 25.1004 50.2002H56.4004V75.2002H25.1004C21.6004 75.2002 18.7004 74.0002 16.2004 71.5002C13.8004 69.1002 12.5004 66.1002 12.5004 62.6002C12.5004 59.1002 13.7004 56.2002 16.2004 53.7002V53.9002Z" fill="white"/>
<rect x="84" y="38" width="57" height="13" fill="white"/>
</svg>
